<svg width="21" height="21" viewBox="0 0 21 21" fill="none" xmlns="http://www.w3.org/2000/svg">
<path d="M0.646362 0.865723V20.8657H20.6464V0.865723H0.646362ZM5.55115 4.79761C6.34331 4.80652 7.12365 5.35302 7.1576 6.29907C7.17453 7.14032 6.44141 7.78109 5.5304 7.80054H5.50843C4.72415 7.79149 3.95823 7.23127 3.92273 6.29907C3.93391 5.46719 4.63318 4.81734 5.55115 4.79761V4.79761ZM14.0497 8.77222C14.9206 8.77762 15.7425 9.03599 16.4178 9.72439C17.1196 10.5071 17.3449 11.5862 17.37 12.6834V17.6736H14.494V13.0227C14.4876 12.151 14.189 11.0914 13.0353 11.0562C12.3591 11.0634 11.8823 11.4563 11.5558 12.1133C11.4666 12.3248 11.4538 12.5678 11.4496 12.8103V17.6736H8.57483C8.58583 15.2423 8.60095 12.8112 8.59558 10.3799C8.59558 9.68926 8.58893 9.22422 8.57483 8.98462H11.4496V10.2102C11.6936 9.86316 11.9642 9.53402 12.3272 9.26904C12.8197 8.91762 13.4112 8.78291 14.0497 8.77222V8.77222ZM4.09241 8.98462H6.96716V17.6736H4.09241V8.98462V8.98462Z" fill="black"/>
</svg>
