<svg width="21" height="21" viewBox="0 0 21 21" fill="none" xmlns="http://www.w3.org/2000/svg">
<path d="M0.0623779 0.865723V20.8657H20.0624V0.865723H0.0623779ZM16.6768 5.6051L15.6055 6.63385C15.5595 6.66757 15.5239 6.71346 15.5025 6.76635C15.4812 6.81925 15.4751 6.87704 15.4849 6.93322V14.4888C15.475 14.5455 15.4811 14.6038 15.5024 14.6572C15.5237 14.7106 15.5594 14.757 15.6055 14.7913L16.6505 15.8201V16.0445H11.3836V15.8201L12.4674 14.7651C12.5749 14.6576 12.5749 14.6282 12.5749 14.4657V8.35572L9.55738 16.0182H9.1505L5.638 8.35572V13.4926C5.60863 13.7076 5.6805 13.9257 5.82988 14.082L7.24238 15.7945V16.0188H3.24175V15.7945L4.65425 14.082C4.80425 13.9257 4.87238 13.7076 4.833 13.4926V7.5551C4.84216 7.47364 4.83154 7.39118 4.80206 7.31469C4.77258 7.23821 4.72509 7.16996 4.66363 7.11572L3.4105 5.6051V5.37697H7.30363L10.3149 11.982L12.9611 5.37697H16.6755L16.6768 5.6051Z" fill="black"/>
</svg>
